<?xml version='1.0' encoding='utf-8'?>
<svg xmlns="http://www.w3.org/2000/svg" xmlns:inkscape="http://www.inkscape.org/namespaces/inkscape" xmlns:sodipodi="http://sodipodi.sourceforge.net/DTD/sodipodi-0.dtd" id="m-leblanc-multiview" version="1.1" viewBox="0 0 900 300" width="900" height="300" sodipodi:docname="m_leblanc-multiview.svg">
  <defs id="defs" />
  <g id="view-mleblanc-tq" inkscape:groupmode="layer" inkscape:label="Madam LeBlanc - Three Quarter">
    <g id="tq-far-arm-u" data-rig-part="far_arm_u" data-rig-bone="far_arm_u" data-rig-z="5.5" inkscape:label="Far Upper Arm">
      <path id="tq-far-arm-u-shape-outline" d="M 135 124 Q 126.5 138.5 125 153" fill="none" stroke="#17120e" stroke-width="15" stroke-linecap="round" />
      <path id="tq-far-arm-u-shape-fill" d="M 135 124 Q 126.5 138.5 125 153" fill="none" stroke="#f6f1e8" stroke-width="11" stroke-linecap="round" />
    </g>
    <g id="tq-far-arm-l" data-rig-part="far_arm_l" data-rig-bone="far_arm_l" data-rig-z="6.1" inkscape:label="Far Lower Arm">
      <path id="tq-far-arm-l-shape-outline" d="M 125 153 Q 123.3 167 126 181" fill="none" stroke="#17120e" stroke-width="14" stroke-linecap="round" />
      <path id="tq-far-arm-l-shape-fill" d="M 125 153 Q 123.3 167 126 181" fill="none" stroke="#f6f1e8" stroke-width="10" stroke-linecap="round" />
      <line id="tq-far-arm-l-shape-cuff" x1="122" y1="180" x2="130" y2="182" fill="none" stroke="#356042" stroke-width="2.3" stroke-linecap="round" />
    </g>
    <g id="tq-far-hand" data-rig-part="far_hand" data-rig-bone="far_arm_l" data-rig-z="6.6" inkscape:label="Far Hand">
      <ellipse id="tq-far-hand-shape" cx="128" cy="191" rx="5.4" ry="4.4" fill="#efc9ae" stroke="#17120e" stroke-width="1.8" />
    </g>
    <g id="tq-far-leg-u" data-rig-part="far_leg_u" data-rig-bone="far_leg_u" data-rig-z="1.8" inkscape:label="Far Upper Leg">
      <path id="tq-far-leg-u-shape-outline" d="M 140 148 Q 135.9 166.5 135 185" fill="none" stroke="#17120e" stroke-width="16" stroke-linecap="round" />
      <path id="tq-far-leg-u-shape-fill" d="M 140 148 Q 135.9 166.5 135 185" fill="none" stroke="#ece7df" stroke-width="12" stroke-linecap="round" />
    </g>
    <g id="tq-far-leg-l" data-rig-part="far_leg_l" data-rig-bone="far_leg_l" data-rig-z="1.9" inkscape:label="Far Lower Leg">
      <path id="tq-far-leg-l-shape-outline" d="M 135 185 Q 132.5 205.5 132 226" fill="none" stroke="#17120e" stroke-width="15" stroke-linecap="round" />
      <path id="tq-far-leg-l-shape-fill" d="M 135 185 Q 132.5 205.5 132 226" fill="none" stroke="#ece7df" stroke-width="11" stroke-linecap="round" />
    </g>
    <g id="tq-far-foot" data-rig-part="far_leg_foot" data-rig-bone="far_leg_foot" data-rig-z="1" inkscape:label="Far Foot">
      <polygon id="tq-far-foot-shape-boot" points="127,225 136,224 146,234 148,240 128,230" fill="#293238" stroke="#17120e" stroke-width="2" stroke-linejoin="round" />
      <line id="tq-far-foot-shape-sole" x1="138" y1="239" x2="147" y2="239" fill="none" stroke="#17120e" stroke-width="1.8" stroke-linecap="round" />
    </g>
    <g id="tq-near-leg-u" data-rig-part="near_leg_u" data-rig-bone="near_leg_u" data-rig-z="2.4" inkscape:label="Near Upper Leg">
      <path id="tq-near-leg-u-shape-outline" d="M 162 149 Q 167.3 167.5 169 186" fill="none" stroke="#17120e" stroke-width="18" stroke-linecap="round" />
      <path id="tq-near-leg-u-shape-fill" d="M 162 149 Q 167.3 167.5 169 186" fill="none" stroke="#ece7df" stroke-width="14" stroke-linecap="round" />
    </g>
    <g id="tq-near-leg-l" data-rig-part="near_leg_l" data-rig-bone="near_leg_l" data-rig-z="2.5" inkscape:label="Near Lower Leg">
      <path id="tq-near-leg-l-shape-outline" d="M 169 186 Q 171.8 206.5 173 227" fill="none" stroke="#17120e" stroke-width="15" stroke-linecap="round" />
      <path id="tq-near-leg-l-shape-fill" d="M 169 186 Q 171.8 206.5 173 227" fill="none" stroke="#ece7df" stroke-width="11" stroke-linecap="round" />
    </g>
    <g id="tq-near-foot" data-rig-part="near_leg_foot" data-rig-bone="near_leg_foot" data-rig-z="1.2" inkscape:label="Near Foot">
      <polygon id="tq-near-foot-shape-boot" points="168,226 177,225 188,235 190,241 169,231" fill="#293238" stroke="#17120e" stroke-width="2" stroke-linejoin="round" />
      <line id="tq-near-foot-shape-sole" x1="180" y1="240" x2="189" y2="240" fill="none" stroke="#17120e" stroke-width="1.8" stroke-linecap="round" />
    </g>
    <g id="tq-skirt-far" data-rig-part="skirt_far" data-rig-bone="far_leg_u" data-rig-z="3.3" inkscape:label="Far Skirt Panel">
      <polygon id="tq-skirt-far-body" points="140,145 123,163 119,218 140,221 151,151" fill="#f6f1e8" stroke="#17120e" stroke-width="2.3" stroke-linejoin="round" />
      <line id="tq-skirt-far-pleat-0" x1="133" y1="157" x2="132" y2="214" fill="none" stroke="#e7ddd0" stroke-width="1.6" stroke-linecap="round" opacity="0.9" />
      <line id="tq-skirt-far-pleat-1" x1="126" y1="166" x2="125" y2="216" fill="none" stroke="#e7ddd0" stroke-width="1.6" stroke-linecap="round" opacity="0.9" />
    </g>
    <g id="tq-skirt-center" data-rig-part="skirt_center" data-rig-bone="pelvis" data-rig-z="4" inkscape:label="Center Skirt">
      <polygon id="tq-skirt-center-body" points="135,145 164,145 170,220 144,222" fill="#f6f1e8" stroke="#17120e" stroke-width="2.3" stroke-linejoin="round" />
      <line id="tq-skirt-center-band" x1="137" y1="208" x2="168" y2="208" fill="none" stroke="#4f8f60" stroke-width="2.6" stroke-linecap="round" />
      <line id="tq-skirt-center-pleat-0" x1="143" y1="154" x2="146" y2="219" fill="none" stroke="#e7ddd0" stroke-width="1.6" stroke-linecap="round" opacity="0.9" />
      <line id="tq-skirt-center-pleat-1" x1="151" y1="152" x2="155" y2="220" fill="none" stroke="#e7ddd0" stroke-width="1.6" stroke-linecap="round" opacity="0.9" />
      <line id="tq-skirt-center-pleat-2" x1="159" y1="153" x2="163" y2="218" fill="none" stroke="#e7ddd0" stroke-width="1.6" stroke-linecap="round" opacity="0.9" />
    </g>
    <g id="tq-skirt-near" data-rig-part="skirt_near" data-rig-bone="near_leg_u" data-rig-z="4.7" inkscape:label="Near Skirt Panel">
      <polygon id="tq-skirt-near-body" points="158,145 181,152 189,217 164,221 152,149" fill="#f6f1e8" stroke="#17120e" stroke-width="2.3" stroke-linejoin="round" />
      <line id="tq-skirt-near-pleat-0" x1="168" y1="154" x2="174" y2="218" fill="none" stroke="#e7ddd0" stroke-width="1.6" stroke-linecap="round" opacity="0.9" />
      <line id="tq-skirt-near-pleat-1" x1="178" y1="158" x2="183" y2="216" fill="none" stroke="#e7ddd0" stroke-width="1.6" stroke-linecap="round" opacity="0.9" />
    </g>
    <g id="tq-pelvis" data-rig-part="pelvis_yoke" data-rig-bone="pelvis" data-rig-z="4.9" inkscape:label="Pelvis Yoke">
      <polygon id="tq-waist-band" points="136,139 168,141 164,152 132,149" fill="#4f8f60" stroke="#17120e" stroke-width="2" stroke-linejoin="round" />
      <polygon id="tq-waist-bow-left" points="157.1,145 163.2,141.5 164.1,148.5" fill="#4f8f60" stroke="#17120e" stroke-width="1.8" stroke-linejoin="round" />
      <polygon id="tq-waist-bow-right" points="172.9,145 166.8,141.5 165.9,148.5" fill="#4f8f60" stroke="#17120e" stroke-width="1.8" stroke-linejoin="round" />
      <circle id="tq-waist-bow-knot" cx="165" cy="145" r="2.2" fill="#356042" stroke="#17120e" stroke-width="1.6" />
      <line id="tq-waist-bow-tail-l" x1="164.1" y1="147.5" x2="161" y2="154.7" fill="none" stroke="#356042" stroke-width="1.7" stroke-linecap="round" />
      <line id="tq-waist-bow-tail-r" x1="165.9" y1="147.5" x2="166.8" y2="155.6" fill="none" stroke="#356042" stroke-width="1.7" stroke-linecap="round" />
    </g>
    <g id="tq-torso" data-rig-part="torso" data-rig-bone="torso" data-rig-z="8.4" inkscape:label="Torso">
      <polygon id="tq-torso-bodice" points="133,116 159,114 170,126 165,145 136,145 128,126" fill="#f6f1e8" stroke="#17120e" stroke-width="2.5" stroke-linejoin="round" />
      <polygon id="tq-collar" points="143,115 157,115 152,123 145,123" fill="#c9c0b4" stroke="#17120e" stroke-width="1.8" stroke-linejoin="round" />
      <line id="tq-bodice-line" x1="149" y1="123" x2="152" y2="144" fill="none" stroke="#e7ddd0" stroke-width="1.8" stroke-linecap="round" />
    </g>
    <g id="tq-near-arm-u" data-rig-part="near_arm_u" data-rig-bone="near_arm_u" data-rig-z="9.8" inkscape:label="Near Upper Arm">
      <path id="tq-near-arm-u-shape-outline" d="M 168 123 Q 178.7 137 181 151" fill="none" stroke="#17120e" stroke-width="16" stroke-linecap="round" />
      <path id="tq-near-arm-u-shape-fill" d="M 168 123 Q 178.7 137 181 151" fill="none" stroke="#f6f1e8" stroke-width="12" stroke-linecap="round" />
    </g>
    <g id="tq-near-arm-l" data-rig-part="near_arm_l" data-rig-bone="near_arm_l" data-rig-z="10.8" inkscape:label="Near Lower Arm">
      <path id="tq-near-arm-l-shape-outline" d="M 181 151 Q 184 165 182 179" fill="none" stroke="#17120e" stroke-width="14" stroke-linecap="round" />
      <path id="tq-near-arm-l-shape-fill" d="M 181 151 Q 184 165 182 179" fill="none" stroke="#f6f1e8" stroke-width="10" stroke-linecap="round" />
      <line id="tq-near-arm-l-shape-cuff" x1="178" y1="178" x2="186" y2="180" fill="none" stroke="#356042" stroke-width="2.3" stroke-linecap="round" />
    </g>
    <g id="tq-near-hand" data-rig-part="near_hand" data-rig-bone="near_arm_l" data-rig-z="11.3" inkscape:label="Near Hand">
      <ellipse id="tq-near-hand-shape" cx="183" cy="189" rx="5.6" ry="4.5" fill="#efc9ae" stroke="#17120e" stroke-width="1.8" />
    </g>
    <g id="tq-head" data-rig-part="head" data-rig-bone="head" data-rig-z="14" inkscape:label="Head">
      <ellipse id="tq-hair-back" cx="150.5" cy="95" rx="24" ry="29" fill="#5c4336" stroke="#17120e" stroke-width="2.6" />
      <ellipse id="tq-face" cx="150.5" cy="99" rx="19" ry="23" fill="#efc9ae" stroke="#17120e" stroke-width="2.2" />
      <path id="tq-hair-front" d="M 129.5 89 C 139.5 72, 167.5 72, 169.5 94 C 161.5 88, 155.5 84, 149.5 83 C 142.5 83, 135.5 86, 129.5 89 Z" fill="#5c4336" stroke="#17120e" stroke-width="2" stroke-linejoin="round" />
      <path id="tq-curl-left" d="M 132.5 106 C 124.5 112, 125.5 122, 135.5 126" fill="none" stroke="#3d2a20" stroke-width="4.2" stroke-linecap="round" />
      <path id="tq-curl-right" d="M 168.5 106 C 176.5 112, 175.5 122, 165.5 126" fill="none" stroke="#3d2a20" stroke-width="4.2" stroke-linecap="round" />
      <circle id="tq-cheek-l" cx="142" cy="104" r="2" fill="#d89a90" opacity="0.6" />
      <circle id="tq-cheek-r" cx="159" cy="104" r="2" fill="#d89a90" opacity="0.5" />
      <path id="tq-brow-main" d="M 151.4 92.4 Q 154.4 91.4 157.5 92.1" fill="none" stroke="#684a3a" stroke-width="0.8" stroke-linecap="round" />
      <path id="tq-brow-far" d="M 139.8 94 Q 141.9 93 144 93.7" fill="none" stroke="#684a3a" stroke-width="0.8" stroke-linecap="round" />
      <path id="tq-eye-main-white" d="M 151.9 97.7 Q 154.5 96.9 157.1 97.7 Q 154.5 98.5 151.9 97.7 Z" fill="#fbf4e8" />
      <path id="tq-eye-main-upper-lid" d="M 151.9 97.7 Q 154.5 96.5 157.1 97.7" fill="none" stroke="#5b4033" stroke-width="0.7" stroke-linecap="round" />
      <ellipse id="tq-eye-main-iris" cx="154.6" cy="97.8" rx="0.6" ry="0.9" fill="#5c4638" />
      <circle id="tq-eye-main-pupil" cx="154.7" cy="97.8" r="0.3" fill="#251c18" />
      <path id="tq-eye-far-white" d="M 140.3 98.2 Q 141.9 97.6 143.5 98.2 Q 141.9 98.9 140.3 98.2 Z" fill="#fbf4e8" />
      <path id="tq-eye-far-upper-lid" d="M 140.3 98.2 Q 141.9 97.2 143.5 98.2" fill="none" stroke="#5b4033" stroke-width="0.7" stroke-linecap="round" />
      <ellipse id="tq-eye-far-iris" cx="141.9" cy="98.3" rx="0.6" ry="0.9" fill="#5c4638" />
      <circle id="tq-eye-far-pupil" cx="142" cy="98.4" r="0.3" fill="#251c18" />
      <path id="tq-nose" d="M 151.3 98.7 Q 154.1 103.5 151.5 107.0" fill="none" stroke="#17120e" stroke-width="1.4" stroke-linecap="round" />
      <path id="tq-mouth" d="M 148.8 110.0 Q 152.5 112.4 156.2 109.9" fill="none" stroke="#17120e" stroke-width="1.5" stroke-linecap="round" />
      <line id="tq-lip-shadow" x1="151" y1="111.4" x2="155.1" y2="111" fill="none" stroke="#a87067" stroke-width="0.8" stroke-linecap="round" opacity="0.7" />
      <polygon id="tq-neck-bow-left" points="144.1,120 149.9,116.7 150.7,123.3" fill="#4f8f60" stroke="#17120e" stroke-width="1.8" stroke-linejoin="round" />
      <polygon id="tq-neck-bow-right" points="158.9,120 153.1,116.7 152.3,123.3" fill="#4f8f60" stroke="#17120e" stroke-width="1.8" stroke-linejoin="round" />
      <circle id="tq-neck-bow-knot" cx="151.5" cy="120" r="2" fill="#356042" stroke="#17120e" stroke-width="1.6" />
      <line id="tq-neck-bow-tail-l" x1="150.7" y1="122.3" x2="147.8" y2="129" fill="none" stroke="#356042" stroke-width="1.7" stroke-linecap="round" />
      <line id="tq-neck-bow-tail-r" x1="152.3" y1="122.3" x2="153.1" y2="129.8" fill="none" stroke="#356042" stroke-width="1.7" stroke-linecap="round" />
      <polygon id="tq-hair-ribbon-left" points="160.8,86 166,83 166.8,89" fill="#4f8f60" stroke="#17120e" stroke-width="1.8" stroke-linejoin="round" />
      <polygon id="tq-hair-ribbon-right" points="174.2,86 169,83 168.2,89" fill="#4f8f60" stroke="#17120e" stroke-width="1.8" stroke-linejoin="round" />
      <circle id="tq-hair-ribbon-knot" cx="167.5" cy="86" r="1.9" fill="#356042" stroke="#17120e" stroke-width="1.6" />
      <line id="tq-hair-ribbon-tail-l" x1="166.8" y1="88.1" x2="164.1" y2="94.2" fill="none" stroke="#356042" stroke-width="1.7" stroke-linecap="round" />
      <line id="tq-hair-ribbon-tail-r" x1="168.2" y1="88.1" x2="169" y2="95" fill="none" stroke="#356042" stroke-width="1.7" stroke-linecap="round" />
    </g>
    <g id="tq-blink" data-rig-part="blink" data-rig-bone="head" data-rig-z="15" data-rig-opacity="blink_vis" inkscape:label="Blink">
      <line id="tq-blink-main" x1="151.5" y1="97.7" x2="158.6" y2="97.7" fill="none" stroke="#17120e" stroke-width="2" stroke-linecap="round" />
      <line id="tq-blink-far" x1="140.1" y1="98.3" x2="143.8" y2="98.3" fill="none" stroke="#17120e" stroke-width="1.7" stroke-linecap="round" />
    </g>
    <g id="tq-talk" data-rig-part="talk_mouth" data-rig-bone="head" data-rig-z="15" data-rig-opacity="talk_vis" inkscape:label="Talk Mouth">
      <ellipse id="tq-talk-mouth" cx="152.4" cy="110.7" rx="2.6" ry="1.8" fill="#b66e63" stroke="#17120e" stroke-width="1.2" />
    </g>
    <g id="tq-joints" inkscape:label="Joints">
      <circle id="tq-joint-waist" cx="150" cy="145" r="2.8" fill="#ff3eb5" stroke="#17120e" stroke-width="1.1" opacity="0.3" data-rig-joint="waist" />
      <circle id="tq-joint-neck" cx="150" cy="120" r="2.8" fill="#ff3eb5" stroke="#17120e" stroke-width="1.1" opacity="0.3" data-rig-joint="neck" />
      <circle id="tq-joint-far_shoulder" cx="135" cy="124" r="2.8" fill="#ff3eb5" stroke="#17120e" stroke-width="1.1" opacity="0.3" data-rig-joint="far_shoulder" />
      <circle id="tq-joint-far_elbow" cx="125" cy="153" r="2.8" fill="#ff3eb5" stroke="#17120e" stroke-width="1.1" opacity="0.3" data-rig-joint="far_elbow" />
      <circle id="tq-joint-far_wrist" cx="126" cy="181" r="2.8" fill="#ff3eb5" stroke="#17120e" stroke-width="1.1" opacity="0.3" data-rig-joint="far_wrist" />
      <circle id="tq-joint-far_handtip" cx="128" cy="191" r="2.8" fill="#ff3eb5" stroke="#17120e" stroke-width="1.1" opacity="0.3" data-rig-joint="far_handtip" />
      <circle id="tq-joint-near_shoulder" cx="168" cy="123" r="2.8" fill="#ff3eb5" stroke="#17120e" stroke-width="1.1" opacity="0.3" data-rig-joint="near_shoulder" />
      <circle id="tq-joint-near_elbow" cx="181" cy="151" r="2.8" fill="#ff3eb5" stroke="#17120e" stroke-width="1.1" opacity="0.3" data-rig-joint="near_elbow" />
      <circle id="tq-joint-near_wrist" cx="182" cy="179" r="2.8" fill="#ff3eb5" stroke="#17120e" stroke-width="1.1" opacity="0.3" data-rig-joint="near_wrist" />
      <circle id="tq-joint-near_handtip" cx="183" cy="189" r="2.8" fill="#ff3eb5" stroke="#17120e" stroke-width="1.1" opacity="0.3" data-rig-joint="near_handtip" />
      <circle id="tq-joint-far_hip" cx="140" cy="148" r="2.8" fill="#ff3eb5" stroke="#17120e" stroke-width="1.1" opacity="0.3" data-rig-joint="far_hip" />
      <circle id="tq-joint-far_knee" cx="135" cy="185" r="2.8" fill="#ff3eb5" stroke="#17120e" stroke-width="1.1" opacity="0.3" data-rig-joint="far_knee" />
      <circle id="tq-joint-far_ankle" cx="132" cy="226" r="2.8" fill="#ff3eb5" stroke="#17120e" stroke-width="1.1" opacity="0.3" data-rig-joint="far_ankle" />
      <circle id="tq-joint-far_toe" cx="139" cy="237" r="2.8" fill="#ff3eb5" stroke="#17120e" stroke-width="1.1" opacity="0.3" data-rig-joint="far_toe" />
      <circle id="tq-joint-near_hip" cx="162" cy="149" r="2.8" fill="#ff3eb5" stroke="#17120e" stroke-width="1.1" opacity="0.3" data-rig-joint="near_hip" />
      <circle id="tq-joint-near_knee" cx="169" cy="186" r="2.8" fill="#ff3eb5" stroke="#17120e" stroke-width="1.1" opacity="0.3" data-rig-joint="near_knee" />
      <circle id="tq-joint-near_ankle" cx="173" cy="227" r="2.8" fill="#ff3eb5" stroke="#17120e" stroke-width="1.1" opacity="0.3" data-rig-joint="near_ankle" />
      <circle id="tq-joint-near_toe" cx="181" cy="238" r="2.8" fill="#ff3eb5" stroke="#17120e" stroke-width="1.1" opacity="0.3" data-rig-joint="near_toe" />
    </g>
  </g>
</svg>