<?xml version="1.0" encoding="UTF-8" standalone="no"?>
<svg
   width="160mm"
   height="160mm"
   viewBox="0 0 160 160"
   version="1.1"
   xmlns="http://www.w3.org/2000/svg"
   xmlns:inkscape="http://www.inkscape.org/namespaces/inkscape"
   xmlns:sodipodi="http://sodipodi.sourceforge.net/DTD/sodipodi-0.dtd">
  <defs>
    <style>
      .outline { fill:none; stroke:#1a130f; stroke-width:4.8; stroke-linejoin:round; stroke-linecap:round; }
      .thin { fill:none; stroke:#1a130f; stroke-width:2.4; stroke-linejoin:round; stroke-linecap:round; }
      .fur { fill:#e0a136; stroke:#1a130f; stroke-width:4.8; stroke-linejoin:round; stroke-linecap:round; }
      .furdark { fill:#c67e1f; stroke:none; }
      .furhi { fill:#efb94b; stroke:none; }
      .furshadow { fill:#a85f18; stroke:none; }
      .cream { fill:#f0d7a5; stroke:#1a130f; stroke-width:4.0; stroke-linejoin:round; stroke-linecap:round; }
      .creamsoft { fill:#f0d7a5; stroke:none; }
      .mouth { fill:#341016; stroke:#1a130f; stroke-width:4.0; stroke-linejoin:round; stroke-linecap:round; }
      .tooth { fill:#fff6e8; stroke:#1a130f; stroke-width:2.4; stroke-linejoin:round; stroke-linecap:round; }
      .eyehole { fill:#1a0d0e; stroke:#1a130f; stroke-width:3.2; stroke-linejoin:round; stroke-linecap:round; }
      .pupil { fill:#fdf8f1; stroke:none; }
      .glow { fill:#f2d45d; fill-opacity:0.72; stroke:none; }
      .honey { fill:#f0bf2c; stroke:none; }
      .claw { fill:#ebe3cf; stroke:#1a130f; stroke-width:2.6; stroke-linejoin:round; stroke-linecap:round; }
      .nose { fill:#2a1818; stroke:#1a130f; stroke-width:2.2; stroke-linejoin:round; }
      .stitch { fill:none; stroke:#5d2d16; stroke-width:2.3; stroke-linecap:round; }
    </style>
  </defs>
  <g inkscape:groupmode="layer" inkscape:label="Hunny Horror Boss - Front" id="view-front">
    <g id="part-leg-l-u">
      <path class="fur" d="M 67 117 C 59 121, 57 133, 60 143 C 63 148, 68 149, 73 145 C 76 139, 76 126, 72 119 Z" />
      <path class="furdark" d="M 63 121 C 60 128, 61 138, 64 144 C 67 145, 69 143, 69 140 C 68 132, 67 126, 66 121 Z" />
    </g>
    <g id="part-leg-l-l">
      <path class="fur" d="M 63 139 C 57 145, 57 154, 61 159 H 74 C 76 153, 74 145, 69 139 Z" />
      <path class="claw" d="M 61 159 L 64 154 L 66 159 Z" />
      <path class="claw" d="M 67 159 L 70 153 L 72 159 Z" />
      <path class="claw" d="M 73 159 L 76 154 L 79 159 Z" />
    </g>
    <g id="part-leg-r-u">
      <path class="fur" d="M 93 117 C 99 119, 103 130, 100 142 C 97 147, 92 149, 87 145 C 84 138, 85 124, 89 119 Z" />
      <path class="furdark" d="M 96 121 C 99 129, 98 139, 95 144 C 92 145, 90 143, 90 140 C 91 133, 93 126, 94 121 Z" />
    </g>
    <g id="part-leg-r-l">
      <path class="fur" d="M 95 139 C 101 145, 102 154, 98 159 H 85 C 83 153, 85 145, 89 139 Z" />
      <path class="claw" d="M 81 159 L 84 154 L 86 159 Z" />
      <path class="claw" d="M 87 159 L 90 153 L 92 159 Z" />
      <path class="claw" d="M 93 159 L 96 154 L 99 159 Z" />
    </g>
    <g id="part-arm-l-u">
      <path class="fur" d="M 49 81 C 42 84, 33 95, 31 104 C 31 108, 35 111, 39 109 C 45 104, 51 94, 55 86 Z" />
      <path class="furshadow" d="M 49 81 C 45 84, 42 88, 40 93 C 44 95, 49 94, 54 90 L 53 83 Z" />
      <path class="stitch" d="M 43 89 L 50 91" />
    </g>
    <g id="part-arm-l-l">
      <path class="fur" d="M 35 102 C 28 108, 22 118, 21 127 C 22 132, 27 134, 32 131 C 36 126, 40 116, 41 107 Z" />
      <path class="claw" d="M 21 128 L 23 122 L 26 127 Z" />
      <path class="claw" d="M 27 131 L 29 124 L 33 130 Z" />
      <path class="claw" d="M 32 130 L 35 123 L 38 129 Z" />
    </g>
    <g id="part-body">
      <path class="fur" d="M 48 76 C 38 82, 35 95, 37 111 C 39 130, 45 145, 56 151 C 65 155, 95 156, 105 151 C 117 145, 122 131, 123 111 C 125 93, 121 81, 112 76 C 103 71, 57 71, 48 76 Z" />
      <path class="furdark" d="M 50 88 C 44 95, 44 123, 48 137 C 53 146, 62 149, 70 148 C 58 138, 54 122, 53 95 Z" />
      <path class="furhi" d="M 50 76 C 58 72, 102 72, 111 76 C 116 80, 118 87, 117 94 C 110 97, 104 99, 98 97 L 92 102 L 85 98 L 80 104 L 74 98 L 67 102 L 61 97 C 54 99, 48 97, 43 94 C 42 86, 44 80, 50 76 Z" />
      <path class="furshadow" d="M 48 78 C 55 74, 65 74, 72 77 C 66 82, 63 89, 62 98 L 55 96 C 49 92, 46 85, 48 78 Z" />
      <path class="stitch" d="M 56 88 L 63 91 M 96 86 L 103 89 M 73 99 L 79 102 M 84 99 L 90 102" />
      <ellipse class="cream" cx="80" cy="118" rx="24" ry="24" />
      <path class="creamsoft" d="M 69 106 C 74 103, 86 103, 92 108 C 93 113, 92 118, 88 121 C 85 123, 82 124, 80 124 C 75 124, 70 122, 67 119 C 66 114, 66 109, 69 106 Z" style="fill:#f0bf2c" />
      <path class="honey" d="M 74 124 C 73 130, 75 137, 77 142 C 79 145, 82 145, 83 142 C 84 136, 83 130, 82 124 Z" />
      <path class="stitch" d="M 59 91 L 66 93 M 94 89 L 101 91 M 54 97 L 61 100" />
    </g>
    <g id="part-arm-r-u">
      <path class="fur" d="M 111 80 C 120 84, 129 95, 131 104 C 131 109, 127 112, 123 110 C 116 105, 110 95, 106 85 Z" />
      <path class="furshadow" d="M 109 81 C 113 84, 117 89, 119 94 C 124 95, 128 93, 131 90 C 129 86, 126 83, 123 81 Z" />
      <path class="stitch" d="M 114 89 L 122 91" />
    </g>
    <g id="part-arm-r-l">
      <path class="fur" d="M 126 102 C 134 106, 141 116, 142 126 C 141 132, 136 135, 130 132 C 125 127, 121 116, 120 106 Z" />
      <path class="claw" d="M 142 127 L 139 121 L 136 127 Z" />
      <path class="claw" d="M 136 132 L 133 124 L 129 131 Z" />
      <path class="claw" d="M 130 132 L 127 124 L 123 130 Z" />
    </g>
    <g id="part-head">
      <circle class="fur" cx="80" cy="57" r="29" />
      <circle class="fur" cx="59" cy="35" r="10" />
      <circle class="fur" cx="101" cy="35" r="10" />
      <circle class="creamsoft" cx="59" cy="36" r="4.7" />
      <circle class="creamsoft" cx="101" cy="36" r="4.7" />
      <path class="furdark" d="M 54 44 C 50 50, 49 64, 53 73 C 57 79, 61 81, 68 82 C 63 77, 61 71, 60 63 C 59 56, 58 49, 54 44 Z" />
      <ellipse class="eyehole" cx="69" cy="56" rx="7" ry="9" />
      <ellipse class="eyehole" cx="91" cy="57" rx="7" ry="9" />
      <circle class="pupil" cx="70" cy="57" r="2.3" />
      <circle class="pupil" cx="90" cy="58" r="2.3" />
      <path class="thin" d="M 61 47 C 66 44, 73 44, 77 46" />
      <path class="thin" d="M 84 47 C 89 44, 96 44, 100 47" />
      <ellipse class="cream" cx="80" cy="69" rx="19" ry="14" />
      <path class="nose" d="M 80 61 L 75 66 L 80 69 L 85 66 Z" />
      <path class="thin" d="M 80 69 L 80 75" />
      <path class="thin" d="M 70 73 C 74 76, 77 77, 80 78" />
      <path class="thin" d="M 90 73 C 86 76, 83 77, 80 78" />
      <path class="stitch" d="M 55 61 L 61 63 M 98 63 L 103 66" />
    </g>
    <g id="part-eyes-glow">
      <ellipse class="glow" cx="69" cy="56" rx="9.2" ry="11.2" />
      <ellipse class="glow" cx="91" cy="57" rx="9.2" ry="11.2" />
    </g>
    <g id="part-jaw">
      <path class="mouth" d="M 63 73 C 66 85, 74 94, 80 96 C 86 94, 94 85, 97 73 C 92 77, 86 79, 80 79 C 74 79, 68 77, 63 73 Z" />
      <path class="tooth" d="M 67 74 L 71 80 L 75 74 Z" />
      <path class="tooth" d="M 75 76 L 80 83 L 85 76 Z" />
      <path class="tooth" d="M 85 74 L 89 80 L 93 74 Z" />
      <path class="tooth" d="M 70 90 L 75 84 L 79 90 Z" />
      <path class="tooth" d="M 81 90 L 85 84 L 90 90 Z" />
      <path class="honey" d="M 72 89 C 72 94, 73 99, 75 102 C 77 104, 80 103, 80 100 C 80 96, 79 92, 78 89 Z" />
      <path class="honey" d="M 87 87 C 88 92, 90 96, 92 99 C 95 101, 97 100, 97 97 C 97 92, 95 89, 93 86 Z" />
    </g>
  </g>
</svg>
