<?xml version="1.0" encoding="UTF-8" standalone="no"?>
<svg width="160mm" height="160mm" viewBox="0 0 160 160" version="1.1"
   xmlns="http://www.w3.org/2000/svg"
   xmlns:inkscape="http://www.inkscape.org/namespaces/inkscape">
  <defs>
    <style>
      .outline { fill:none; stroke:#1a1513; stroke-width:4.2; stroke-linejoin:round; stroke-linecap:round; }
      .thin { fill:none; stroke:#2d2521; stroke-width:2.0; stroke-linejoin:round; stroke-linecap:round; }
      .metal { fill:#d7bf84; stroke:#1a1513; stroke-width:4.0; stroke-linejoin:round; stroke-linecap:round; }
      .metal2 { fill:#b8944f; stroke:none; }
      .metal3 { fill:#f1e4bc; stroke:none; }
      .trim { fill:#74bdbc; stroke:#1a1513; stroke-width:3.1; stroke-linejoin:round; stroke-linecap:round; }
      .trimsoft { fill:#a2dcda; stroke:none; }
      .dark { fill:#3f3433; stroke:#1a1513; stroke-width:3.8; stroke-linejoin:round; stroke-linecap:round; }
      .darksoft { fill:#6d5d59; stroke:none; }
      .face { fill:#f6efde; stroke:#1a1513; stroke-width:3.6; stroke-linejoin:round; stroke-linecap:round; }
      .faceSoft { fill:#fff8ea; stroke:none; }
      .eye { fill:#35a3b3; stroke:#1a1513; stroke-width:2.0; stroke-linejoin:round; }
      .glow { fill:#d7faf2; fill-opacity:0.72; stroke:none; }
      .mouth { fill:none; stroke:#2c6d73; stroke-width:2.4; stroke-linecap:round; }
      .gear { fill:#d8b562; stroke:#1a1513; stroke-width:2.6; stroke-linejoin:round; stroke-linecap:round; }
      .wire { fill:none; stroke:#1a1513; stroke-width:2.6; stroke-linejoin:round; stroke-linecap:round; }
      .card { fill:#f6eed5; stroke:#1a1513; stroke-width:2.2; stroke-linejoin:round; stroke-linecap:round; }
      .punch { fill:#74bdbc; stroke:none; }
      .boot { fill:#6a5240; stroke:#1a1513; stroke-width:3.0; stroke-linejoin:round; stroke-linecap:round; }
      .lace { fill:#efe6ca; stroke:#1a1513; stroke-width:2.0; stroke-linejoin:round; stroke-linecap:round; }
      .soft { stroke:none; }
    </style>
  </defs>
  <g inkscape:groupmode="layer" inkscape:label="Data Lovelace - Front" id="view-front">
    <g id="part-leg-l-u">
      <path class="metal" d="M 67 111 C 63 118, 62 129, 65 140 C 68 144, 71 145, 74 142 C 77 135, 76 121, 72 112 Z"/>
      <path class="metal2" d="M 67 117 C 66 123, 67 133, 69 139 C 70 140, 72 139, 72 136 C 71 129, 70 123, 69 117 Z"/>
      <circle class="gear" cx="70" cy="127" r="3.7"/>
    </g>
    <g id="part-leg-l-l">
      <path class="metal" d="M 69 139 C 65 146, 65 153, 69 158 H 79 C 80 153, 79 146, 76 139 Z"/>
      <path class="trimsoft" d="M 71 143 C 70 147, 71 153, 73 157 H 77 C 78 152, 77 146, 76 143 Z"/>
      <path class="boot" d="M 67 158 H 80 C 80 155, 78 153, 75 152 H 69 Z"/>
    </g>
    <g id="part-leg-r-u">
      <path class="metal" d="M 93 111 C 97 118, 98 129, 95 140 C 92 144, 89 145, 86 142 C 83 135, 84 121, 88 112 Z"/>
      <path class="metal2" d="M 93 117 C 94 123, 93 133, 91 139 C 90 140, 88 139, 88 136 C 89 129, 90 123, 91 117 Z"/>
      <circle class="gear" cx="90" cy="127" r="3.7"/>
    </g>
    <g id="part-leg-r-l">
      <path class="metal" d="M 91 139 C 95 146, 95 153, 91 158 H 81 C 80 153, 81 146, 84 139 Z"/>
      <path class="trimsoft" d="M 89 143 C 90 147, 89 153, 87 157 H 83 C 82 152, 83 146, 84 143 Z"/>
      <path class="boot" d="M 80 158 H 93 C 93 155, 91 153, 88 152 H 82 Z"/>
    </g>

    <g id="part-arm-l-u">
      <path class="metal" d="M 53 74 C 45 79, 37 88, 35 98 C 35 103, 39 106, 43 104 C 49 100, 55 90, 58 80 Z"/>
      <path class="trim" d="M 48 73 C 45 76, 43 81, 41 87 C 44 89, 48 90, 53 88 C 54 82, 53 76, 48 73 Z"/>
      <path class="lace" d="M 43 85 C 46 87, 49 88, 53 87"/>
    </g>
    <g id="part-arm-l-l">
      <path class="metal" d="M 39 96 C 31 102, 25 114, 26 125 C 27 129, 30 131, 34 129 C 39 124, 42 113, 44 100 Z"/>
      <path class="lace" d="M 28 119 C 30 123, 33 125, 36 124 C 37 121, 36 118, 33 117 C 30 117, 29 118, 28 119 Z"/>
      <path class="wire" d="M 31 122 C 30 126, 29 129, 29 132"/>
      <path class="wire" d="M 33 122 C 33 126, 34 129, 35 132"/>
    </g>

    <g id="part-body-back">
      <path class="dark" d="M 52 68 C 44 74, 41 86, 42 103 C 43 122, 48 138, 56 147 C 65 154, 95 154, 104 147 C 112 138, 117 122, 118 103 C 119 86, 116 74, 108 68 C 100 63, 60 63, 52 68 Z"/>
      <path class="darksoft" d="M 52 84 C 50 100, 51 122, 56 138 C 60 143, 66 147, 74 148 C 67 136, 64 117, 64 86 Z"/>
    </g>

    <g id="part-skirt-l">
      <path class="metal" d="M 70 92 C 64 98, 62 112, 65 134 C 68 142, 72 147, 77 150 C 76 136, 76 115, 77 94 C 75 92, 72 91, 70 92 Z"/>
      <path class="trimsoft" d="M 69 101 C 68 113, 69 126, 73 139 C 74 141, 75 142, 76 143 C 75 130, 75 114, 75 100 C 73 99, 71 99, 69 101 Z"/>
      <path class="thin" d="M 71 98 C 74 111, 75 126, 76 143"/>
    </g>
    <g id="part-skirt-r">
      <path class="metal" d="M 90 92 C 96 98, 98 112, 95 134 C 92 142, 88 147, 83 150 C 84 136, 84 115, 83 94 C 85 92, 88 91, 90 92 Z"/>
      <path class="trimsoft" d="M 91 101 C 92 113, 91 126, 87 139 C 86 141, 85 142, 84 143 C 85 130, 85 114, 85 100 C 87 99, 89 99, 91 101 Z"/>
      <path class="thin" d="M 89 98 C 86 111, 85 126, 84 143"/>
    </g>

    <g id="part-body-front">
      <path class="metal" d="M 58 69 C 63 65, 97 65, 102 69 C 107 77, 108 90, 107 106 C 105 124, 101 137, 96 144 C 91 148, 86 150, 80 150 C 74 150, 69 148, 64 144 C 59 137, 55 124, 53 106 C 52 90, 53 77, 58 69 Z"/>
      <path class="trim" d="M 66 76 C 70 72, 90 72, 94 76 C 95 88, 95 110, 92 130 C 88 136, 72 136, 68 130 C 65 110, 65 88, 66 76 Z"/>
      <path class="lace" d="M 72 70 C 75 67, 85 67, 88 70 C 87 76, 86 81, 84 86 H 76 C 74 81, 73 76, 72 70 Z"/>
      <path class="thin" d="M 80 71 L 80 86"/>
      <path class="gear" d="M 76 90 L 80 87 L 84 90 L 88 90 L 89 95 L 86 98 L 87 102 L 83 105 L 80 103 L 77 105 L 73 102 L 74 98 L 71 95 L 72 90 Z"/>
      <circle class="trimsoft" cx="80" cy="96" r="3.2"/>
      <path class="thin" d="M 69 116 C 73 114, 87 114, 91 116"/>
      <path class="thin" d="M 69 126 C 73 128, 87 128, 91 126"/>
      <path class="trimsoft" d="M 71 138 C 75 140, 85 140, 89 138 C 88 142, 85 145, 80 145 C 75 145, 72 142, 71 138 Z"/>
      <circle class="gear" cx="69" cy="83" r="3.3"/>
      <circle class="gear" cx="91" cy="83" r="3.3"/>

    </g>

    <g id="part-arm-r-u">
      <path class="metal" d="M 107 74 C 115 79, 123 88, 125 98 C 125 103, 121 106, 117 104 C 111 100, 105 90, 102 80 Z"/>
      <path class="trim" d="M 112 73 C 115 76, 117 81, 119 87 C 116 89, 112 90, 107 88 C 106 82, 107 76, 112 73 Z"/>
      <path class="lace" d="M 107 87 C 111 88, 114 87, 117 85"/>
    </g>
    <g id="part-arm-r-l">
      <path class="metal" d="M 121 96 C 129 102, 135 114, 134 125 C 133 129, 130 131, 126 129 C 121 124, 118 113, 116 100 Z"/>
      <path class="lace" d="M 124 119 C 123 123, 126 125, 129 124 C 132 121, 131 118, 128 117 C 125 117, 124 118, 124 119 Z"/>
      <path class="wire" d="M 129 122 C 130 126, 131 129, 131 132"/>
      <path class="wire" d="M 127 122 C 127 126, 126 129, 125 132"/>
    </g>

    <g id="part-head-back">
      <path class="dark" d="M 61 49 C 59 38, 63 29, 71 24 C 82 20, 94 22, 100 29 C 105 34, 106 43, 103 49 C 99 42, 90 38, 80 38 C 70 38, 64 42, 61 49 Z"/>
      <path class="dark" d="M 61 48 C 59 59, 63 70, 71 77 C 66 77, 61 75, 58 69 C 55 63, 56 54, 61 48 Z"/>
      <path class="dark" d="M 99 48 C 101 59, 97 70, 89 77 C 94 77, 99 75, 102 69 C 105 63, 104 54, 99 48 Z"/>
      <path class="darksoft" d="M 71 27 C 77 24, 86 24, 93 27 C 90 32, 85 35, 80 35 C 75 35, 72 32, 69 28 Z"/>
      <path class="wire" d="M 67 31 C 67 24, 72 20, 78 20"/>
      <path class="wire" d="M 93 31 C 93 24, 88 20, 82 20"/>
    </g>
    <g id="part-head-front">
      <ellipse class="face" cx="80" cy="53" rx="22" ry="27"/>
      <path class="faceSoft" d="M 67 65 C 72 71, 88 71, 93 65 C 92 73, 87 78, 80 79 C 73 78, 68 73, 67 65 Z"/>
      <path class="dark" d="M 63 48 C 65 39, 71 34, 80 34 C 89 34, 95 39, 97 48 C 93 43, 87 40, 80 40 C 73 40, 67 43, 63 48 Z"/>
      <path class="dark" d="M 61 49 C 61 62, 67 71, 73 77 C 68 78, 63 76, 60 72 C 56 66, 56 57, 61 49 Z"/>
      <path class="dark" d="M 99 49 C 99 62, 93 71, 87 77 C 92 78, 97 76, 100 72 C 104 66, 104 57, 99 49 Z"/>
      <ellipse class="eye" cx="72" cy="54" rx="4.8" ry="7.2"/>
      <ellipse class="eye" cx="88" cy="54" rx="4.8" ry="7.2"/>
      <circle class="glow" cx="71" cy="51" r="2.5"/>
      <circle class="glow" cx="87" cy="51" r="2.5"/>
      <path class="thin" d="M 66 46 C 69 43, 74 43, 77 46"/>
      <path class="thin" d="M 83 46 C 86 43, 91 43, 94 46"/>
      <path class="metal2" d="M 80 55 L 76 61 L 80 64 L 84 61 Z"/>
      <path class="mouth" d="M 74 69 C 77 71, 83 71, 86 69"/>
      <path class="thin" d="M 76 75 C 78 76, 82 76, 84 75"/>
      <path class="gear" d="M 60 41 L 62 37 L 66 37 L 68 41 L 66 45 L 62 45 Z"/>
      <path class="gear" d="M 100 41 L 98 37 L 94 37 L 92 41 L 94 45 L 98 45 Z"/>
      <circle class="trimsoft" cx="64" cy="41" r="2.2"/>
      <circle class="trimsoft" cx="96" cy="41" r="2.2"/>
    </g>

    <g id="part-card-halo">
      <path class="wire" d="M 69 72 C 72 67, 76 64, 80 64 C 84 64, 88 67, 91 72"/>
      <rect class="card" x="76" y="58" width="9" height="14" rx="1.3"/>
      <circle class="punch" cx="79" cy="62" r="0.9"/><circle class="punch" cx="82" cy="66" r="0.9"/><circle class="punch" cx="79" cy="70" r="0.9"/>
    </g>
  </g>
</svg>
